REM DIRINDEX 1\2\6,1\2\7,1\2\8,1\2\9,1\3\10,1\3\11,1\4\12,1\4\13,1\4\14,1\5\15,1\5\16,1\5\17
REM DIRNAME cjc020,folder01,folder02,folder03,folder04,folder05,folder06,folder07,folder08,folder09,folder10,folder11,folder12,folder13,folder14,folder15,folder16
TITLE ""
FILE "1900_2_sec12_1149_1166.mp3" MP3
  TRACK 01 AUDIO
    TITLE "0:"
    INDEX 01 00:00:00
  TRACK 02 AUDIO
    TITLE "13:cjc020_4431"
    INDEX 01 00:00:19
  TRACK 03 AUDIO
    TITLE "0:"
    INDEX 01 00:01:40
  TRACK 04 AUDIO
    TITLE "14:cjc020_4432"
    INDEX 01 00:01:42
  TRACK 05 AUDIO
    TITLE "0:"
    INDEX 01 00:03:70
  TRACK 06 AUDIO
    TITLE "13:cjc020_4433"
    INDEX 01 00:04:52
  TRACK 07 AUDIO
    TITLE "0:"
    INDEX 01 00:05:59
  TRACK 08 AUDIO
    TITLE "14:cjc020_4434"
    INDEX 01 00:05:63
  TRACK 09 AUDIO
    TITLE "0:"
    INDEX 01 00:10:74
  TRACK 10 AUDIO
    TITLE "13:cjc020_4435"
    INDEX 01 00:11:58
  TRACK 11 AUDIO
    TITLE "0:"
    INDEX 01 00:12:73
  TRACK 12 AUDIO
    TITLE "14:cjc020_4436"
    INDEX 01 00:13:02
  TRACK 13 AUDIO
    TITLE "0:"
    INDEX 01 00:15:54
  TRACK 14 AUDIO
    TITLE "13:cjc020_4437"
    INDEX 01 00:16:36
  TRACK 15 AUDIO
    TITLE "0:"
    INDEX 01 00:17:41
  TRACK 16 AUDIO
    TITLE "14:cjc020_4438"
    INDEX 01 00:17:43
  TRACK 17 AUDIO
    TITLE "0:"
    INDEX 01 00:20:53
  TRACK 18 AUDIO
    TITLE "13:cjc020_4439"
    INDEX 01 00:21:33
  TRACK 19 AUDIO
    TITLE "0:"
    INDEX 01 00:22:42
  TRACK 20 AUDIO
    TITLE "14:cjc020_4440"
    INDEX 01 00:22:44
  TRACK 21 AUDIO
    TITLE "0:"
    INDEX 01 00:24:57
  TRACK 22 AUDIO
    TITLE "13:cjc020_4441"
    INDEX 01 00:25:41
  TRACK 23 AUDIO
    TITLE "0:"
    INDEX 01 00:26:66
  TRACK 24 AUDIO
    TITLE "14:cjc020_4442"
    INDEX 01 00:26:67
  TRACK 25 AUDIO
    TITLE "0:"
    INDEX 01 00:29:29
  TRACK 26 AUDIO
    TITLE "13:cjc020_4443"
    INDEX 01 00:30:10
  TRACK 27 AUDIO
    TITLE "0:"
    INDEX 01 00:31:33
  TRACK 28 AUDIO
    TITLE "14:cjc020_4444"
    INDEX 01 00:31:39
  TRACK 29 AUDIO
    TITLE "0:"
    INDEX 01 00:32:45
  TRACK 30 AUDIO
    TITLE "13:cjc020_4445"
    INDEX 01 00:33:28
  TRACK 31 AUDIO
    TITLE "0:"
    INDEX 01 00:34:59
  TRACK 32 AUDIO
    TITLE "14:cjc020_4446"
    INDEX 01 00:34:65
  TRACK 33 AUDIO
    TITLE "0:"
    INDEX 01 00:37:16
  TRACK 34 AUDIO
    TITLE "13:cjc020_4447"
    INDEX 01 00:37:71
  TRACK 35 AUDIO
    TITLE "0:"
    INDEX 01 00:39:03
  TRACK 36 AUDIO
    TITLE "14:cjc020_4448"
    INDEX 01 00:39:09
  TRACK 37 AUDIO
    TITLE "0:"
    INDEX 01 00:43:01
  TRACK 38 AUDIO
    TITLE "13:cjc020_4449"
    INDEX 01 00:43:64
  TRACK 39 AUDIO
    TITLE "0:"
    INDEX 01 00:44:65
  TRACK 40 AUDIO
    TITLE "14:cjc020_4450"
    INDEX 01 00:44:69
  TRACK 41 AUDIO
    TITLE "0:"
    INDEX 01 00:46:72
  TRACK 42 AUDIO
    TITLE "13:cjc020_4451"
    INDEX 01 00:47:50
  TRACK 43 AUDIO
    TITLE "0:"
    INDEX 01 00:49:12
  TRACK 44 AUDIO
    TITLE "14:cjc020_4452"
    INDEX 01 00:49:18
  TRACK 45 AUDIO
    TITLE "0:"
    INDEX 01 00:50:27
  TRACK 46 AUDIO
    TITLE "13:cjc020_4453"
    INDEX 01 00:51:07
  TRACK 47 AUDIO
    TITLE "0:"
    INDEX 01 00:52:41
  TRACK 48 AUDIO
    TITLE "14:cjc020_4454"
    INDEX 01 00:52:47
  TRACK 49 AUDIO
    TITLE "0:"
    INDEX 01 00:54:68
  TRACK 50 AUDIO
    TITLE "13:cjc020_4455"
    INDEX 01 00:55:51
  TRACK 51 AUDIO
    TITLE "0:"
    INDEX 01 00:56:59
  TRACK 52 AUDIO
    TITLE "14:cjc020_4456"
    INDEX 01 00:56:67
  TRACK 53 AUDIO
    TITLE "0:"
    INDEX 01 01:00:49
  TRACK 54 AUDIO
    TITLE "13:cjc020_4457"
    INDEX 01 01:01:34
  TRACK 55 AUDIO
    TITLE "0:"
    INDEX 01 01:02:42
  TRACK 56 AUDIO
    TITLE "14:cjc020_4458"
    INDEX 01 01:02:48
  TRACK 57 AUDIO
    TITLE "0:"
    INDEX 01 01:06:20
  TRACK 58 AUDIO
    TITLE "13:cjc020_4459"
    INDEX 01 01:06:71
  TRACK 59 AUDIO
    TITLE "0:"
    INDEX 01 01:08:21
  TRACK 60 AUDIO
    TITLE "14:cjc020_4460"
    INDEX 01 01:08:23
  TRACK 61 AUDIO
    TITLE "0:"
    INDEX 01 01:11:02
  TRACK 62 AUDIO
    TITLE "13:cjc020_4461"
    INDEX 01 01:11:56
  TRACK 63 AUDIO
    TITLE "0:"
    INDEX 01 01:12:62
  TRACK 64 AUDIO
    TITLE "14:cjc020_4462"
    INDEX 01 01:12:70
  TRACK 65 AUDIO
    TITLE "0:"
    INDEX 01 01:16:30
  TRACK 66 AUDIO
    TITLE "13:cjc020_4463"
    INDEX 01 01:17:08
  TRACK 67 AUDIO
    TITLE "0:"
    INDEX 01 01:18:35
  TRACK 68 AUDIO
    TITLE "14:cjc020_4464"
    INDEX 01 01:18:39
  TRACK 69 AUDIO
    TITLE "0:"
    INDEX 01 01:20:49
  TRACK 70 AUDIO
    TITLE "13:cjc020_4465"
    INDEX 01 01:21:29
  TRACK 71 AUDIO
    TITLE "0:"
    INDEX 01 01:22:27
  TRACK 72 AUDIO
    TITLE "14:cjc020_4466"
    INDEX 01 01:22:35
  TRACK 73 AUDIO
    TITLE "0:"
    INDEX 01 01:26:17
